<svg xmlns="http://www.w3.org/2000/svg" width="260.99" height="360.465" viewBox="0 0 260.99 360.465">
  <g id="_680-it-developer-outline" data-name="680-it-developer-outline" transform="translate(-84.52 -34.765)">
    <path id="Path_2" data-name="Path 2" d="M214.7,395.23a159.176,159.176,0,0,1-61.42-12.26l-.12-.05a83.559,83.559,0,0,0-22.53-5.87l-27.52-3.17a20.989,20.989,0,0,1-18.59-20.86V325.26a89.094,89.094,0,0,1,89-89h7.63a6,6,0,1,1,0,12h-7.63a77.085,77.085,0,0,0-77,77v27.76a8.991,8.991,0,0,0,7.96,8.94l27.53,3.17a95.651,95.651,0,0,1,25.69,6.68l.12.05a147.971,147.971,0,0,0,113.98-.09,91.581,91.581,0,0,1,24.7-6.46l29.04-3.36a8.992,8.992,0,0,0,7.97-8.94V325.25a77.085,77.085,0,0,0-77-77h-7.62a6,6,0,0,1,0-12h7.62a89.094,89.094,0,0,1,89,89v27.76a20.989,20.989,0,0,1-18.6,20.86l-29.04,3.36a79.044,79.044,0,0,0-21.45,5.61A158.984,158.984,0,0,1,214.7,395.23Z" fill="#121331"/>
    <path id="Path_3" data-name="Path 3" d="M215,281.82a39.921,39.921,0,0,1-39.87-39.87V223.02a6,6,0,0,1,12,0v18.93a27.875,27.875,0,0,0,55.75,0V223.01a6,6,0,0,1,12,0v18.94A39.923,39.923,0,0,1,215,281.82Z" fill="#121331"/>
    <path id="Path_4" data-name="Path 4" d="M215,239.57a65.222,65.222,0,0,1-37.28-11.62,66.942,66.942,0,0,1-8.3-6.8,65.274,65.274,0,0,1-19.99-44.92l-1.39-39.92a6,6,0,1,1,11.99-.49l.01.24,1.38,39.75a53.309,53.309,0,0,0,16.33,36.7,54.86,54.86,0,0,0,6.79,5.57,53.61,53.61,0,0,0,84.03-42.26l1.26-36.31a6,6,0,0,1,11.99.41l-1.26,36.31a65.962,65.962,0,0,1-28.27,51.71A65.235,65.235,0,0,1,215,239.57Z" fill="#121331"/>
    <path id="Path_5" data-name="Path 5" d="M275.84,145.74a5.663,5.663,0,0,1-1.01-.09,5.992,5.992,0,0,1-4.73-4.19c-1.18-3.91-2.06-7.84-2.92-11.63-3.31-14.66-6.45-28.57-25.99-44.37-17.16,33.73-49.82,55.29-86.88,56.83a6.009,6.009,0,0,1-5.55-3.17c-4.54-5.39-22.17-28.67-17.44-60.2a86.291,86.291,0,0,1,13.82-35.94,19.059,19.059,0,0,1,27.02-4.46L188,49.82a8.175,8.175,0,0,0,8.08.78c11.98-5.37,35.57-13.54,59-7.86.05.01.11.03.16.04.71.19,17.6,4.93,27.12,19.51,10.68,16.37,14.77,58.52-1.68,80.99A6,6,0,0,1,275.84,145.74ZM160.83,46.77a7.652,7.652,0,0,0-1.16.09A7,7,0,0,0,155,49.81c-5.83,8.41-10.13,19.67-11.82,30.89-3.66,24.35,9.09,43.41,13.74,49.42,34.01-2.55,62.43-23.4,76.43-56.28a6,6,0,0,1,9-2.53c25.28,18.01,31.49,34.93,35.19,50.17,4.75-18.52,1.47-42.36-5.25-52.64-6.72-10.3-19.16-14.17-20.17-14.48-19.92-4.78-40.59,2.44-51.15,7.17a20.247,20.247,0,0,1-19.96-1.96L165.13,48.24a.7.7,0,0,1-.1-.08A7.01,7.01,0,0,0,160.83,46.77Z" fill="#08a88a"/>
    <path id="Path_6" data-name="Path 6" d="M201.05,170.57H154.56a6,6,0,0,1-6-6V135.62a6,6,0,0,1,6-6h46.49a6,6,0,0,1,6,6v28.95A6,6,0,0,1,201.05,170.57Zm-40.49-12h34.49V141.62H160.56Z" fill="#121331"/>
    <path id="Path_7" data-name="Path 7" d="M275.47,170.57H228.98a6,6,0,0,1-6-6V135.62a6,6,0,0,1,6-6h46.49a6,6,0,0,1,6,6v28.95A6,6,0,0,1,275.47,170.57Zm-40.48-12h34.49V141.62H234.99Z" fill="#121331"/>
    <path id="Path_8" data-name="Path 8" d="M228.99,153.09H201.05a6,6,0,0,1,0-12h27.94a6,6,0,0,1,0,12Z" fill="#121331"/>
    <path id="Path_9" data-name="Path 9" d="M224.32,349.05a5.945,5.945,0,0,1-3.55-1.17l-22-16.21a6,6,0,0,1,0-9.66l22-16.21a6,6,0,1,1,7.12,9.66l-15.45,11.38,15.45,11.38a6,6,0,0,1-3.57,10.83Z" fill="#08a88a"/>
    <path id="Path_10" data-name="Path 10" d="M286.58,349.05a6,6,0,0,1-3.56-10.83l15.45-11.38-15.45-11.38a6,6,0,1,1,7.12-9.66l22,16.21a6,6,0,0,1,0,9.66l-22,16.21A6.017,6.017,0,0,1,286.58,349.05Z" fill="#08a88a"/>
    <path id="Path_11" data-name="Path 11" d="M249.96,349.05a6,6,0,0,1-5.71-7.85l10.5-32.42a6,6,0,0,1,11.42,3.7l-10.5,32.42A6.023,6.023,0,0,1,249.96,349.05Z" fill="#08a88a"/>
  </g>
</svg>
