<svg width="24" height="24" viewBox="0 0 24 24" fill="none" xmlns="http://www.w3.org/2000/svg">
<path d="M19.5 4.5C18.683 5.28195 17.7111 5.8839 16.647 6.267C15.525 6.465 12.42 5.025 10.89 6.495C10.635 6.75 10.32 7.005 9.99 7.26C9.27 6.945 8.16 6.465 7.35 6C6.54 5.535 4.5 4.5 4.5 4.5L0 9.75C0 9.75 1.11 11.25 1.8 12.24C2.25 12.9 2.805 13.905 3.165 14.58L2.655 15.18C2.53287 15.4226 2.48892 15.6971 2.52922 15.9657C2.56951 16.2344 2.69206 16.4839 2.88 16.68C3.09693 16.8426 3.36088 16.9303 3.632 16.9298C3.90313 16.9292 4.16672 16.8405 4.383 16.677C4.3028 16.7709 4.24211 16.8798 4.20446 16.9974C4.16681 17.115 4.15296 17.2389 4.16371 17.362C4.17446 17.485 4.2096 17.6046 4.26708 17.7139C4.32456 17.8232 4.40323 17.9199 4.4985 17.9985C4.72755 18.1323 4.98815 18.2025 5.25341 18.202C5.51867 18.2015 5.77898 18.1302 6.0075 17.9955C5.83612 18.2091 5.74234 18.4746 5.74152 18.7485C5.74071 19.0223 5.8329 19.2884 6.003 19.503C6.22412 19.5795 6.45993 19.6039 6.69204 19.5743C6.92414 19.5446 7.14624 19.4617 7.341 19.332C7.24397 19.5616 7.21884 19.8153 7.26892 20.0595C7.31899 20.3038 7.44193 20.5271 7.6215 20.7C7.87516 20.8127 8.15329 20.8592 8.42981 20.835C8.70634 20.8109 8.9722 20.717 9.2025 20.562L9.9765 19.8615C10.6845 20.5665 11.661 21.003 12.7395 21.003L12.831 21.0015C13.1864 20.9712 13.5269 20.8447 13.816 20.6357C14.105 20.4267 14.3318 20.143 14.472 19.815C14.691 19.899 14.94 19.956 15.204 19.956C15.558 19.956 15.8865 19.854 16.164 19.6785C17.0415 19.098 16.8315 18.648 16.8315 18.648C17.1435 18.7823 17.4901 18.8142 17.8214 18.739C18.1527 18.6638 18.4516 18.4854 18.675 18.2295C18.9072 17.992 19.0536 17.6838 19.0911 17.3538C19.1286 17.0237 19.055 16.6906 18.882 16.407C18.8915 16.4127 18.9025 16.4153 18.9135 16.4145C19.545 16.4145 20.094 16.0665 20.3805 15.5535C20.5215 15.1889 20.5691 14.7948 20.5191 14.4071C20.4691 14.0194 20.3229 13.6504 20.094 13.3335L20.0985 13.341C21.3285 13.101 21.2835 12.486 21.8835 11.586C22.4516 10.8515 23.1585 10.2359 23.964 9.774L19.5 4.5ZM19.425 15.09C18.765 15.75 18.255 15.465 17.13 14.61C16.005 13.755 13.77 12.15 13.77 12.15C13.8615 12.6075 14.073 13.005 14.3715 13.3215C14.85 13.86 16.275 15.09 16.95 15.72C17.37 16.11 18.45 16.89 17.82 17.49C17.19 18.09 16.695 17.49 15.66 16.65C14.625 15.81 12.315 13.74 12.315 13.74C12.3023 13.9384 12.3318 14.1373 12.4016 14.3235C12.4714 14.5096 12.5799 14.6789 12.72 14.82C12.975 15.12 14.4 16.5 15 17.13C15.6 17.76 16.125 18.135 15.615 18.63C15.105 19.125 14.07 18.345 13.5 17.76C12.615 16.905 10.86 15.315 10.86 15.315L10.8585 15.3945C10.8585 15.8205 11.0055 16.2105 11.253 16.5195C11.685 17.0865 12.525 17.8215 13.035 18.3915C13.545 18.9615 13.845 19.4415 13.035 19.8915C12.225 20.3415 11.025 19.2315 10.5 18.6915V18.6885C10.5001 18.5403 10.4469 18.3971 10.35 18.285C10.1706 18.1188 9.9492 18.0047 9.70972 17.955C9.47024 17.9053 9.22174 17.9219 8.991 18.003C9.08594 17.918 9.16204 17.8141 9.21442 17.6979C9.2668 17.5818 9.2943 17.4559 9.29515 17.3285C9.29599 17.2011 9.27017 17.0749 9.21934 16.958C9.16851 16.8412 9.0938 16.7363 9 16.65C8.8031 16.5008 8.56278 16.4202 8.31575 16.4205C8.06872 16.4207 7.82857 16.5019 7.632 16.6515C7.7314 16.5566 7.80812 16.4404 7.85649 16.3118C7.90485 16.1831 7.9236 16.0452 7.91135 15.9083C7.8991 15.7714 7.85616 15.639 7.78573 15.521C7.71529 15.4029 7.61917 15.3023 7.5045 15.2265C7.23597 15.0578 6.92088 14.9785 6.60448 15.0001C6.28808 15.0216 5.98666 15.1429 5.7435 15.3465C5.90601 15.1495 5.98613 14.8974 5.96713 14.6428C5.94812 14.3881 5.83145 14.1507 5.6415 13.98C5.40542 13.7603 5.10458 13.6228 4.78392 13.5882C4.46327 13.5536 4.14003 13.6237 3.8625 13.788L2.865 12.1035C2.175 11.0085 1.365 9.8685 1.365 9.8685L4.785 5.7135C4.785 5.7135 6 6.4635 7.005 7.0335C7.5 7.3185 8.355 7.6935 9 7.9935C7.98 8.7585 7.125 9.4935 7.38 10.0035C7.83443 10.3297 8.37751 10.5096 8.93682 10.5193C9.49613 10.5289 10.0451 10.3678 10.5105 10.0575C11.1072 9.66079 11.8084 9.45039 12.525 9.453C13.0455 9.453 13.5405 9.561 13.989 9.7575C14.82 10.3185 16.35 11.6985 17.745 12.5685C19.5 13.8435 19.845 14.6685 19.425 15.0885V15.09Z" fill="white"/>
</svg>
