<svg width="17" height="16" viewBox="0 0 17 16" fill="none" xmlns="http://www.w3.org/2000/svg">
<path d="M16.749 0.0982143C16.9455 0.241071 17.0258 0.431548 16.9901 0.669643L14.7044 14.3839C14.6746 14.5565 14.5794 14.6905 14.4187 14.7857C14.3353 14.8333 14.2431 14.8571 14.1419 14.8571C14.0764 14.8571 14.005 14.8423 13.9276 14.8125L9.88296 13.1607L7.72225 15.7946C7.61511 15.9315 7.46927 16 7.28475 16C7.20737 16 7.14189 15.9881 7.08832 15.9643C6.97522 15.9226 6.88445 15.8527 6.816 15.7545C6.74755 15.6563 6.71332 15.5476 6.71332 15.4286V12.3125L14.4276 2.85714L4.88296 11.1161L1.35618 9.66964C1.13594 9.58631 1.0169 9.42262 0.999039 9.17857C0.987134 8.94048 1.08237 8.76488 1.28475 8.65179L16.1419 0.0803571C16.2312 0.0267857 16.3264 0 16.4276 0C16.5466 0 16.6538 0.0327381 16.749 0.0982143Z" fill="white"/>
</svg>
